#!OML:ASF H:\BabyWalks\Project 1\Capture day 1\Session 1\baby.ASF
:FULLY-SPECIFIED
:DEGREES
392
root 3.61313 19.9657 -1.11894 -86.2619 85.4702 -93.7996
lowerback 26.42 -0.202098 -0.289287
upperback 3.1817 0.605094 4.80659
thorax -11.2238 0.568773 5.3867
lowerneck -4.29792 0.415861 5.73605
upperneck -10.3707 0.182944 -6.88247
head -2.59618 0.157675 -3.29732
rclavicle 0 7.95139e-016
rhumerus -30.17 23.1034 -33.8815
rradius 48.2631
rwrist -2.63408
rhand -20.0743 -21.4827
rfingers 7.12502
rthumb 6.26811 -51.3699
lclavicle 0 7.95139e-016
lhumerus -1.1032 6.48069 21.0841
lradius 87.4467
lwrist 8.50137
lhand -14.0718 3.75518
lfingers 7.12502
lthumb 12.0599 33.3877
rfemur -53.3972 4.42269 5.58204
rtibia 115.223
rfoot -20.8914 2.61077
rtoes -7.74507
lfemur 13.038 -2.77369 -16.7162
ltibia 1.59028e-014
lfoot 21.9028 -8.3879
ltoes -25.3181
393
root 3.84628 20.1259 -1.10725 -90.7174 85.7025 -97.9934
lowerback 26.4036 -0.284032 0.0239422
upperback 3.21237 0.6052 4.88701
thorax -11.1791 0.559275 5.29361
lowerneck -4.03816 0.342292 5.61257
upperneck -9.99349 0.089256 -6.97627
head -2.52168 0.113595 -3.30134
rclavicle -1.39149e-014 -5.00937e-014
rhumerus -29.5995 21.488 -32.4828
rradius 46.8074
rwrist -1.71945
rhand -21.1754 -21.6371
rfingers 7.12502
rthumb 5.20499 -51.5532
lclavicle -1.39149e-014 -5.00937e-014
lhumerus -0.512317 7.22547 21.642
lradius 87.1915
lwrist 8.50038
lhand -14.1525 3.67145
lfingers 7.12502
lthumb 11.982 33.3085
rfemur -54.4601 5.41046 4.89595
rtibia 112.416
rfoot -20.5194 1.99469
rtoes -7.41307
lfemur 13.7156 -2.49859 -16.9417
ltibia -4.77083e-014
lfoot 24.1008 -7.50313
ltoes -25.2931
394
root 4.08657 20.3235 -1.09323 -97.194 85.9956 -104.27
lowerback 26.3663 -0.348716 0.23453
upperback 3.23595 0.583905 4.88475
thorax -11.129 0.540832 5.17289
lowerneck -3.71601 0.236965 5.5076
upperneck -9.72169 -0.0424512 -7.01024
head -2.49695 0.0506119 -3.29034
rclavicle -1.11319e-014 2.06736e-014
rhumerus -29.196 19.5983 -31.3273
rradius 45.3862
rwrist -0.62977
rhand -22.2413 -21.6326
rfingers 7.12502
rthumb 4.17572 -51.5714
lclavicle -1.11319e-014 2.06736e-014
lhumerus 0.1088 7.70687 22.4471
lradius 87.0516
lwrist 8.48524
lhand -14.4153 3.67861
lfingers 7.12502
lthumb 11.7287 33.3303
rfemur -54.9642 6.38293 4.23988
rtibia 108.96
rfoot -20.0019 1.63269
rtoes -7.48515
lfemur 14.3831 -2.32096 -17.2728
ltibia 3.18055e-015
lfoot 26.1535 -6.96025
ltoes -24.6763
395
root 4.32144 20.5127 -1.07129 -106.621 86.3135 -113.548
lowerback 26.3017 -0.396021 0.309247
upperback 3.26582 0.53339 4.81063
thorax -11.0547 0.511395 5.05853
lowerneck -3.37397 0.111898 5.42862
upperneck -9.53288 -0.200306 -7.02611
head -2.50596 -0.025089 -3.27931
rclavicle 1.98785e-014 -3.49861e-014
rhumerus -28.9716 17.5186 -30.3954
rradius 44.0569
rwrist 0.559116
rhand -23.2013 -21.4944
rfingers 7.12502
rthumb 3.24871 -51.4494
lclavicle 1.98785e-014 -3.49861e-014
lhumerus 0.698935 7.89488 23.4564
lradius 87.0279
lwrist 8.4651
lhand -14.8303 3.74649
lfingers 7.12502
lthumb 11.3284 33.4205
rfemur -55.2052 7.23489 3.50975
rtibia 105.172
rfoot -19.2997 1.62627
rtoes -7.92349
lfemur 15.0701 -2.25186 -17.6997
ltibia 6.36111e-015
lfoot 28.212 -6.67737
ltoes -23.353
396
root 4.55115 20.6909 -1.04152 -120.042 86.5666 -126.865
lowerback 26.2014 -0.425076 0.222981
upperback 3.31701 0.451015 4.68355
thorax -10.9346 0.471288 4.98706
lowerneck -3.061 -0.0239312 5.40196
upperneck -9.40037 -0.377669 -7.09182
head -2.53127 -0.110111 -3.29603
rclavicle 4.37326e-015 -3.97569e-015
rhumerus -28.9381 15.3612 -29.6594
rradius 42.8753
rwrist 1.7292
rhand -24.0106 -21.2838
rfingers 7.12502
rthumb 2.46717 -51.2493
lclavicle 4.37326e-015 -3.97569e-015
lhumerus 1.20736 7.76549 24.619
lradius 87.1068
lwrist 8.46222
lhand -15.3372 3.85676
lfingers 7.12502
lthumb 10.8395 33.557
rfemur -55.1992 7.95846 2.68333
rtibia 101.077
rfoot -18.347 1.96347
rtoes -8.67403
lfemur 15.7717 -2.29916 -18.219
ltibia -4.45278e-014
lfoot 30.4718 -6.45123
ltoes -21.3537
397
root 4.77627 20.8559 -1.00454 -137.546 86.6097 -144.29
lowerback 26.086 -0.439009 -0.0326416
upperback 3.39198 0.334598 4.51579
thorax -10.7767 0.42035 4.97865
lowerneck -2.82676 -0.165847 5.41438
upperneck -9.26866 -0.569173 -7.22419
head -2.54506 -0.202165 -3.34255
rclavicle 1.55052e-014 7.39479e-014
rhumerus -29.1084 13.2795 -29.1047
rradius 41.8749
rwrist 2.76021
rhand -24.6421 -21.0636
rfingers 7.12502
rthumb 1.85725 -51.0352
lclavicle 1.55052e-014 7.39479e-014
lhumerus 1.59806 7.29526 25.8761
lradius 87.2528
lwrist 8.48262
lhand -15.8369 3.99828
lfingers 7.12502
lthumb 10.3575 33.7232
rfemur -54.9109 8.54562 1.75674
rtibia 96.7585
rfoot -17.2172 2.54709
rtoes -9.81736
lfemur 11.0757 -2.48387 -18.8406
ltibia 11.2625
lfoot 27.188 -7.04295
ltoes -18.8107
398
root 4.99805 21.0079 -0.960953 -155.909 86.2753 -162.574
lowerback 25.9757 -0.442163 -0.437008
upperback 3.4953 0.191413 4.33596
thorax -10.5864 0.362004 5.05173
lowerneck -2.69411 -0.310873 5.44363
upperneck -9.09857 -0.770432 -7.4293
head -2.5297 -0.299052 -3.41626
rclavicle 3.26007e-014 -1.90833e-014
rhumerus -29.4755 11.4292 -28.7121
rradius 41.0754
rwrist 3.52824
rhand -25.054 -20.9155
rfingers 7.12502
rthumb 1.45941 -50.8903
lclavicle 3.26007e-014 -1.90833e-014
lhumerus 1.84485 6.47824 27.1784
lradius 87.4131
lwrist 8.51357
lhand -16.2329 4.1401
lfingers 7.12502
lthumb 9.97551 33.8837
rfemur -54.3251 9.02011 0.778312
rtibia 92.2531
rfoot -15.9297 3.29854
rtoes -11.3338
lfemur 7.12935 -1.02514 -18.975
ltibia 21.0056
lfoot 25.0366 -9.23339
ltoes -15.9859
